# Blender v2.90.1 OBJ File: ''
# www.blender.org
mtllib cubeWithUV.mtl
o Cube
v 1.000000 1.000000 -1.000000
v 1.000000 -1.000000 -1.000000
v 1.000000 1.000000 1.000000
v 1.000000 -1.000000 1.000000
v -1.000000 1.000000 -1.000000
v -1.000000 -1.000000 -1.000000
v -1.000000 1.000000 1.000000
v -1.000000 -1.000000 1.000000
vt 0.193991 0.832362
vt 0.223038 0.858405
vt 0.224366 0.922223
vt 0.193991 0.899900
vt 0.126453 0.899900
vt 0.223191 0.920312
vt 0.150344 0.921552
vt 0.126453 0.697286
vt 0.193991 0.697286
vt 0.193991 0.764824
vt 0.126453 0.764824
vt 0.058915 0.832362
vt 0.126453 0.832362
vt 0.058915 0.899900
vn 0.0000 1.0000 0.0000
vn 0.0000 0.0000 1.0000
vn -1.0000 0.0000 0.0000
vn 0.0000 -1.0000 0.0000
vn 1.0000 0.0000 0.0000
vn 0.0000 0.0000 -1.0000
usemtl Material
s off
f 1/1/1 5/2/1 7/3/1 3/4/1
f 4/5/2 3/4/2 7/6/2 8/7/2
f 8/8/3 7/9/3 5/10/3 6/11/3
f 6/12/4 2/13/4 4/5/4 8/14/4
f 2/13/5 1/1/5 3/4/5 4/5/5
f 6/11/6 5/10/6 1/1/6 2/13/6
